<?xml version="1.0" encoding="UTF-8" standalone="no"?>
<!-- Created with Inkscape (http://www.inkscape.org/) -->

<svg
   version="1.1"
   id="svg2"
   xml:space="preserve"
   width="45.5863"
   height="40.494225"
   viewBox="0 0 45.5863 40.494224"
   sodipodi:docname="lightning-ir-logo.svg"
   inkscape:version="1.1.2 (0a00cf5339, 2022-02-04)"
   xmlns:inkscape="http://www.inkscape.org/namespaces/inkscape"
   xmlns:sodipodi="http://sodipodi.sourceforge.net/DTD/sodipodi-0.dtd"
   xmlns="http://www.w3.org/2000/svg"
   xmlns:svg="http://www.w3.org/2000/svg"><defs
     id="defs6"><clipPath
       clipPathUnits="userSpaceOnUse"
       id="clipPath16"><path
         d="M 0,841.89 H 595.276 V 0 H 0 Z"
         id="path14" /></clipPath></defs><sodipodi:namedview
     id="namedview4"
     pagecolor="#ffffff"
     bordercolor="#666666"
     borderopacity="1.0"
     inkscape:pageshadow="2"
     inkscape:pageopacity="0.0"
     inkscape:pagecheckerboard="0"
     showgrid="false"
     inkscape:zoom="1.2120428"
     inkscape:cx="348.99758"
     inkscape:cy="56.516157"
     inkscape:window-width="1583"
     inkscape:window-height="970"
     inkscape:window-x="1575"
     inkscape:window-y="293"
     inkscape:window-maximized="0"
     inkscape:current-layer="g8" /><g
     id="g8"
     inkscape:groupmode="layer"
     inkscape:label="lightning-ir-logo"
     transform="matrix(1.3333333,0,0,-1.3333333,-48.24522,1100.8388)"><g
       id="g10"><g
         id="g12"
         clip-path="url(#clipPath16)"><g
           id="g18"
           transform="translate(69.2477,796.3542)"><path
             d="m 0,0 -11.674,8.174 c -0.022,0.015 -0.049,0.013 -0.062,-0.004 l -1.306,-1.865 c -0.016,-0.023 -0.055,-0.019 -0.075,0.008 l -9.02,11.983 c -0.031,0.041 0.015,0.082 0.058,0.052 l 11.641,-8.151 c 0.022,-0.015 0.05,-0.013 0.062,0.004 l 1.306,1.865 c 0.016,0.023 0.055,0.019 0.075,-0.008 L 0.058,0.052 C 0.089,0.01 0.044,-0.03 0,0"
             style="fill:#ffcd04;fill-opacity:1;fill-rule:nonzero;stroke:none"
             id="path20" /></g><g
           id="g22"
           transform="translate(69.2477,796.3542)"><path
             d="m 0,0 -11.674,8.174 c -0.022,0.015 -0.049,0.013 -0.062,-0.004 l -1.306,-1.865 c -0.016,-0.023 -0.055,-0.019 -0.075,0.008 l -9.02,11.983 c -0.031,0.041 0.015,0.082 0.058,0.052 l 11.641,-8.151 c 0.022,-0.015 0.05,-0.013 0.062,0.004 l 1.306,1.865 c 0.016,0.023 0.055,0.019 0.075,-0.008 L 0.058,0.052 C 0.089,0.01 0.044,-0.03 0,0 Z"
             style="fill:none;stroke:#ffcd04;stroke-width:2.196;stroke-linecap:butt;stroke-linejoin:miter;stroke-miterlimit:10;stroke-dasharray:none;stroke-opacity:1"
             id="path24" /></g><g
           id="g26"
           transform="translate(55.2276,809.022)"><path
             d="m 0,0 v 0 c -3.143,-4.488 -9.329,-5.579 -13.818,-2.436 v 0 c -4.488,3.142 -5.579,9.329 -2.436,13.817 v 0 c 3.143,4.489 9.329,5.579 13.818,2.437 v 0 C 2.052,10.675 3.143,4.488 0,0"
             style="fill:#ffffff;fill-opacity:1;fill-rule:nonzero;stroke:none"
             id="path28" /></g><g
           id="g30"
           transform="translate(55.2276,809.022)"><path
             d="m 0,0 v 0 c -3.143,-4.488 -9.329,-5.579 -13.818,-2.436 v 0 c -4.488,3.142 -5.579,9.329 -2.436,13.817 v 0 c 3.143,4.489 9.329,5.579 13.818,2.437 v 0 C 2.052,10.675 3.143,4.488 0,0 Z"
             style="fill:none;stroke:#000000;stroke-width:2;stroke-linecap:butt;stroke-linejoin:miter;stroke-miterlimit:10;stroke-dasharray:none;stroke-opacity:1"
             id="path32" /></g><g
           id="g34"
           transform="translate(45.8559,821.1974)"><path
             d="m 0,0 v 0 c 3.645,0.643 7.121,-1.791 7.764,-5.436 v 0"
             style="fill:#ffffff;fill-opacity:1;fill-rule:nonzero;stroke:#000000;stroke-width:1;stroke-linecap:round;stroke-linejoin:miter;stroke-miterlimit:10;stroke-dasharray:none;stroke-opacity:1"
             id="path36" /></g></g></g></g></svg>
